<?xml version="1.0" encoding="UTF-8"?>
<svg xmlns="http://www.w3.org/2000/svg" width="552.84" height="158" xmlns:xlink="http://www.w3.org/1999/xlink" viewBox="0 0 552.84 158">
  <defs>
    <mask id="b" data-name="mask" x="103.42" y="22" width="150" height="150" maskUnits="userSpaceOnUse">
      <g>
        <rect x="103.42" y="22" width="150" height="150" fill="#fff"/>
        <path d="M156.6,90.16c-.04-18.37,13.9-25.51,23.41-25.51,10.16,0,23.49,8.16,23.41,25.51h-46.82Z"/>
      </g>
    </mask>
    <mask id="c" data-name="mask-1" x="294.42" y="22" width="150" height="150" maskUnits="userSpaceOnUse">
      <g>
        <rect x="294.42" y="22" width="150" height="150" fill="#fff"/>
        <circle cx="368.16" cy="98" r="29.55"/>
      </g>
    </mask>
  </defs>
  <g id="a" data-name="Font">
    <polygon points="16.54 10 120.22 10 120.22 26.12 46.42 126.81 120.78 126.81 120.78 148 10 148 10 132.11 84.16 31.01 16.72 31.01 16.54 10" fill="#a20040"/>
    <g mask="url(#b)">
      <path d="M156.6,103.4h69.38c3.54-27.79-8.86-44.67-24.06-51.85-15.2-7.18-43.27-3.18-55.77,9.33-20.89,20.9-21.25,52.83-1.31,72.93,23.5,23.69,57.07,12.31,66.21,4.48l-9-15.25c-14.36,10.44-31.66,6.29-37.63,.14s-7.73-15.99-7.83-19.77Z" fill="#c67500"/>
    </g>
    <path d="M243.25,49.15v98.85l20.48-.32v-57.3c.59-16.53,24.43-25.6,40.38-21.94l5.56-19.46c-30.14-5.02-47.46,10.94-47.46,10.94l-1.89-11.08-17.07,.31Z" fill="#c67500"/>
    <g mask="url(#c)">
      <circle cx="368.16" cy="98" r="50" fill="#a20040"/>
    </g>
    <polygon points="411.94 10 472.19 148 482.58 148 542.84 10 515.65 10 477.39 97.62 439.13 10 411.94 10" fill="#a20040"/>
  </g>
  <g id="d" data-name="Outline2">
    <path d="M120.22,10V26.12L46.42,126.81H120.78v21.19H10v-15.89L84.16,31.01H16.72l-.18-21.01H120.22m0-10H16.54c-2.67,0-5.22,1.07-7.1,2.96-1.88,1.89-2.92,4.46-2.9,7.13l.18,21.01c.05,5.49,4.51,9.92,10,9.92h47.7L1.94,126.19c-1.26,1.72-1.94,3.79-1.94,5.91v15.89c0,5.52,4.48,10,10,10H120.78c5.52,0,10-4.48,10-10v-21.19c0-5.52-4.48-10-10-10h-54.63l62.14-84.78c1.26-1.71,1.93-3.79,1.93-5.91V10c0-5.52-4.48-10-10-10h0Z"/>
    <path d="M183.42,48c6.9,0,13.42,1.15,18.51,3.55,15.2,7.18,27.6,24.06,24.06,51.85h-69.38c.1,3.78,1.87,13.62,7.83,19.77,3.33,3.43,10.19,6.24,18.09,6.24,6.27,0,13.19-1.77,19.54-6.38l9,15.25c-5.04,4.32-17.51,9.72-31.63,9.72-11.48,0-24.05-3.57-34.59-14.19-19.94-20.1-19.58-52.03,1.31-72.93,8.32-8.32,23.53-12.88,37.26-12.88m0-10c-13.8,0-32.69,4.15-44.34,15.81-24.68,24.69-25.26,62.92-1.33,87.04,11.13,11.22,25.55,17.15,41.69,17.15s31.32-6.29,38.13-12.13c3.68-3.16,4.57-8.5,2.1-12.68l-9-15.25c-1.32-2.23-3.44-3.86-5.92-4.55h21.23c5.03,0,9.28-3.74,9.92-8.74,3.62-28.42-7.48-51.66-29.71-62.16-6.25-2.95-14.12-4.51-22.78-4.51h0Zm-13.84,75.4h29.8c-1.13,.32-2.22,.84-3.19,1.54-5.08,3.69-10.23,4.47-13.66,4.47-5.9,0-9.9-2.16-10.91-3.2-.78-.81-1.46-1.77-2.04-2.81h0Z"/>
    <path d="M298.1,48c3.61,0,7.47,.3,11.57,.98l-5.56,19.46c-2.36-.54-4.9-.8-7.51-.8-14.99,0-32.37,8.67-32.87,22.75v57.3l-20.48,.32V49.15l17.07-.31,1.89,11.08s12.93-11.92,35.89-11.92m0-10s0,0,0,0c-12.07,0-21.84,2.88-28.98,6.09-1.71-3.16-5.05-5.24-8.8-5.24-.06,0-.12,0-.18,0l-17.07,.31c-5.45,.1-9.82,4.55-9.82,10v98.85c0,2.68,1.08,5.25,2.98,7.13,1.87,1.84,4.39,2.87,7.01,2.87,.05,0,.11,0,.16,0l20.48-.32c5.46-.09,9.84-4.54,9.84-10v-57.08c.41-7.31,12.57-12.96,22.87-12.96,1.9,0,3.68,.19,5.27,.55,.75,.17,1.5,.25,2.24,.25,4.37,0,8.36-2.88,9.61-7.25l5.56-19.46c.78-2.74,.36-5.68-1.16-8.09-1.52-2.41-4-4.05-6.81-4.52-4.43-.74-8.88-1.11-13.21-1.11h0Z"/>
    <path d="M368.16,48c27.61,0,50,22.39,50,50s-22.39,50-50,50-50-22.39-50-50,22.39-50,50-50m0-10c-33.08,0-60,26.92-60,60s26.92,60,60,60,60-26.92,60-60-26.92-60-60-60h0Z"/>
    <path d="M542.84,10l-60.25,138h-10.39L411.94,10h27.19l38.26,87.62,38.26-87.62h27.19m0-10h-27.19c-3.98,0-7.57,2.36-9.16,6l-29.09,66.63L448.3,6c-1.59-3.64-5.19-6-9.16-6h-27.19c-3.37,0-6.52,1.7-8.37,4.52-1.85,2.82-2.15,6.39-.8,9.48l60.25,138c1.59,3.64,5.19,6,9.16,6h10.39c3.98,0,7.57-2.36,9.16-6L552,14c1.35-3.09,1.05-6.66-.8-9.48-1.85-2.82-4.99-4.52-8.37-4.52h0Z"/>
    <path d="M180.01,74.65c2.52,0,6.27,1.06,9.24,4.05,.46,.46,.88,.94,1.26,1.46h-21.13c.39-.54,.82-1.05,1.29-1.52,2.94-2.94,6.86-3.99,9.34-3.99m0-10c-9.51,0-23.44,7.14-23.41,25.51h46.82c.08-17.35-13.24-25.51-23.41-25.51h0Z"/>
    <path d="M368.16,78.45c10.78,0,19.55,8.77,19.55,19.55s-8.77,19.55-19.55,19.55-19.55-8.77-19.55-19.55,8.77-19.55,19.55-19.55m0-10c-16.32,0-29.55,13.23-29.55,29.55s13.23,29.55,29.55,29.55,29.55-13.23,29.55-29.55-13.23-29.55-29.55-29.55h0Z"/>
  </g>
  <g id="e" data-name="Outline">
    <path d="M120.22,10V26.12L46.42,126.81H120.78v21.19H10v-15.89L84.16,31.01H16.72l-.18-21.01H120.22m0-3H16.54c-.8,0-1.57,.32-2.13,.89-.56,.57-.88,1.34-.87,2.14l.18,21.01c.01,1.65,1.35,2.97,3,2.97h61.52L7.58,130.33c-.38,.51-.58,1.14-.58,1.77v15.89c0,1.66,1.34,3,3,3H120.78c1.66,0,3-1.34,3-3v-21.19c0-1.66-1.34-3-3-3H52.33L122.64,27.89c.38-.51,.58-1.14,.58-1.77V10c0-1.66-1.34-3-3-3h0Z" fill="#fff"/>
    <path d="M183.42,48c6.9,0,13.42,1.15,18.51,3.55,15.2,7.18,27.6,24.06,24.06,51.85h-69.38c.1,3.78,1.87,13.62,7.83,19.77,3.33,3.43,10.19,6.24,18.09,6.24,6.27,0,13.19-1.77,19.54-6.38l9,15.25c-5.04,4.32-17.51,9.72-31.63,9.72-11.48,0-24.05-3.57-34.59-14.19-19.94-20.1-19.58-52.03,1.31-72.93,8.32-8.32,23.53-12.88,37.26-12.88m0-3c-15.57,0-31.03,5.4-39.39,13.76-21.91,21.92-22.49,55.82-1.31,77.16,9.79,9.87,22.49,15.08,36.72,15.08s27.53-5.25,33.58-10.44c1.1-.95,1.37-2.55,.63-3.8l-9-15.25c-.43-.73-1.15-1.24-1.97-1.41-.2-.04-.41-.06-.61-.06-.63,0-1.25,.2-1.76,.57-6.6,4.8-13.31,5.81-17.78,5.81-7.44,0-13.36-2.68-15.94-5.33-4.13-4.26-5.96-10.61-6.65-14.68h66.04c1.51,0,2.78-1.12,2.98-2.62,1.73-13.59-.06-25.51-5.33-35.44-4.56-8.6-11.63-15.35-20.43-19.5-5.32-2.51-12.16-3.84-19.79-3.84h0Z" fill="#fff"/>
    <path d="M298.1,48c3.61,0,7.47,.3,11.57,.98l-5.56,19.46c-2.36-.54-4.9-.8-7.51-.8-14.99,0-32.37,8.67-32.87,22.75v57.3l-20.48,.32V49.15l17.07-.31,1.89,11.08s12.93-11.92,35.89-11.92m0-3c-16.47,0-28.01,5.81-33.76,9.58l-1.06-6.24c-.25-1.44-1.5-2.5-2.96-2.5-.02,0-.04,0-.06,0l-17.07,.31c-1.64,.03-2.95,1.36-2.95,3v98.85c0,.8,.32,1.57,.9,2.14,.56,.55,1.32,.86,2.1,.86,.02,0,.03,0,.05,0l20.48-.32c1.64-.03,2.95-1.36,2.95-3v-57.24c.46-11.85,15.8-19.8,29.87-19.8,2.43,0,4.73,.25,6.84,.73,.23,.05,.45,.08,.67,.08,1.31,0,2.51-.86,2.88-2.18l5.56-19.46c.23-.82,.11-1.7-.35-2.43s-1.2-1.22-2.04-1.36c-4.05-.68-8.11-1.02-12.06-1.02h0Z" fill="#fff"/>
    <path d="M368.16,48c27.61,0,50,22.39,50,50s-22.39,50-50,50-50-22.39-50-50,22.39-50,50-50m0-3c-29.22,0-53,23.78-53,53s23.78,53,53,53,53-23.78,53-53-23.78-53-53-53h0Z" fill="#fff"/>
    <path d="M542.84,10l-60.25,138h-10.39L411.94,10h27.19l38.26,87.62,38.26-87.62h27.19m0-3h-27.19c-1.19,0-2.27,.71-2.75,1.8l-35.51,81.32L441.88,8.8c-.48-1.09-1.56-1.8-2.75-1.8h-27.19c-1.01,0-1.96,.51-2.51,1.36-.55,.85-.64,1.92-.24,2.84l60.25,138c.48,1.09,1.56,1.8,2.75,1.8h10.39c1.19,0,2.27-.71,2.75-1.8L545.59,11.2c.41-.93,.32-2-.24-2.84-.55-.85-1.5-1.36-2.51-1.36h0Z" fill="#fff"/>
    <path d="M180.01,67.65c5.08,0,10.39,2.29,14.2,6.11,3.46,3.48,5.53,8.07,6.07,13.4h-40.54c.52-5.48,2.52-10,5.98-13.47,4.45-4.45,10.3-6.04,14.29-6.04m0-3c-9.51,0-23.44,7.14-23.41,25.51h46.82c.08-17.35-13.24-25.51-23.41-25.51h0Z" fill="#fff"/>
    <path d="M368.16,71.45c14.64,0,26.55,11.91,26.55,26.55s-11.91,26.55-26.55,26.55-26.55-11.91-26.55-26.55,11.91-26.55,26.55-26.55m0-3c-16.32,0-29.55,13.23-29.55,29.55s13.23,29.55,29.55,29.55,29.55-13.23,29.55-29.55-13.23-29.55-29.55-29.55h0Z" fill="#fff"/>
  </g>
</svg>