<?xml version="1.0" encoding="UTF-8"?>
<svg id="a" data-name="layer 2" xmlns="http://www.w3.org/2000/svg" width="1024" height="1024" xmlns:xlink="http://www.w3.org/1999/xlink" viewBox="0 0 1024 1024">
  <defs>
    <mask id="b" data-name="mask" x="339" y="455" width="150" height="150" maskUnits="userSpaceOnUse">
      <g>
        <rect x="339" y="455" width="150" height="150" fill="#fff"/>
        <path d="M392.18,523.16c-.04-18.37,13.9-25.51,23.41-25.51,10.16,0,23.49,8.16,23.41,25.51h-46.82Z"/>
      </g>
    </mask>
    <mask id="c" data-name="mask-1" x="530" y="455" width="150" height="150" maskUnits="userSpaceOnUse">
      <g>
        <rect x="530" y="455" width="150" height="150" fill="#fff"/>
        <circle cx="603.74" cy="531" r="29.55"/>
      </g>
    </mask>
  </defs>
  <polygon points="252.13 443 355.8 443 355.8 459.12 282 559.81 356.36 559.81 356.36 581 245.58 581 245.58 565.11 319.74 464.01 252.3 464.01 252.13 443" fill="#a20040"/>
  <g mask="url(#b)">
    <path d="M392.18,536.4h69.38c3.54-27.79-8.86-44.67-24.06-51.85-15.2-7.18-43.27-3.18-55.77,9.33-20.89,20.9-21.25,52.83-1.31,72.93,23.5,23.69,57.07,12.31,66.21,4.48l-9-15.25c-14.36,10.44-31.66,6.29-37.63,.14s-7.73-15.99-7.83-19.77Z" fill="#c67500"/>
  </g>
  <path d="M478.83,482.15v98.85l20.48-.32v-57.3c.59-16.53,24.43-25.6,40.38-21.94l5.56-19.46c-30.14-5.02-47.46,10.94-47.46,10.94l-1.89-11.08-17.07,.31Z" fill="#c67500"/>
  <g mask="url(#c)">
    <circle cx="603.74" cy="531" r="50" fill="#a20040"/>
  </g>
  <polygon points="647.52 443 707.78 581 718.16 581 778.42 443 751.23 443 712.97 530.62 674.71 443 647.52 443" fill="#a20040"/>
</svg>
