<?xml version="1.0" encoding="UTF-8"?>
<svg xmlns="http://www.w3.org/2000/svg" width="552.8377" height="169.3541" xmlns:xlink="http://www.w3.org/1999/xlink" viewBox="0 0 552.8377 169.3541">
  <defs>
    <linearGradient id="b" data-name="未命名漸層 82" x1="65.3885" y1="159.354" x2="65.3885" y2="21.354" gradientUnits="userSpaceOnUse">
      <stop offset="0" stop-color="#ff107a"/>
      <stop offset="1" stop-color="#f9ff71"/>
    </linearGradient>
    <mask id="c" data-name="mask" x="103.4188" y="33.354" width="150" height="150" maskUnits="userSpaceOnUse">
      <g>
        <rect x="103.4188" y="33.354" width="150" height="150" fill="#fff"/>
        <path d="M156.5991,101.5147c-.035-18.3718,13.8956-25.5104,23.408-25.5104,10.1649,0,23.4924,8.1644,23.4076,25.5104h-46.8156Z"/>
      </g>
    </mask>
    <linearGradient id="d" data-name="未命名漸層 82" x1="178.3885" x2="178.3885" y2="59.354" xlink:href="#b"/>
    <linearGradient id="e" data-name="未命名漸層 82" x1="276.4541" x2="276.4541" y2="59.354" xlink:href="#b"/>
    <mask id="f" data-name="mask-1" x="294.4188" y="33.354" width="150" height="150" maskUnits="userSpaceOnUse">
      <g>
        <rect x="294.4188" y="33.354" width="150" height="150" fill="#fff"/>
        <circle cx="368.1564" cy="109.354" r="29.5479"/>
      </g>
    </mask>
    <linearGradient id="g" data-name="未命名漸層 82" x1="368.1564" x2="368.1564" y2="59.354" xlink:href="#b"/>
    <linearGradient id="h" data-name="未命名漸層 82" x1="477.3885" x2="477.3885" xlink:href="#b"/>
    <mask id="j" data-name="mask-2" x="10" y="21.354" width="532.8377" height="138" maskUnits="userSpaceOnUse">
      <g>
        <polygon points="16.5448 21.354 120.2167 21.354 120.2167 37.474 46.4163 138.1664 120.7769 138.1664 120.7769 159.354 10 159.354 10 143.4633 84.1611 42.3635 16.7221 42.3635 16.5448 21.354" fill="#fff"/>
        <path d="M156.599,114.7574h69.3841c3.5438-27.7909-8.8595-44.6706-24.0606-51.8515-15.2011-7.1809-43.2738-3.1757-55.7683,9.3258-20.8898,20.9015-21.2458,52.8294-1.3056,72.9278,23.501,23.6876,57.0739,12.3101,66.2132,4.4764l-8.9994-15.2477c-14.3621,10.4449-31.6611,6.2949-37.6296,.1399s-7.7303-15.9943-7.8337-19.7707Z" fill="#fff"/>
        <path d="M243.2454,60.5082v98.8459l20.4811-.3229v-57.2984c.5852-16.5312,24.4311-25.6014,40.3771-21.9441l5.5592-19.4571c-30.1365-5.0228-47.4577,10.9446-47.4577,10.9446l-1.8877-11.0779-17.072,.3099Z" fill="#fff"/>
        <circle cx="368.1564" cy="109.354" r="50" fill="#fff"/>
        <polygon points="411.9392 21.354 472.1941 159.354 482.5828 159.354 542.8377 21.354 515.6455 21.354 477.3885 108.9731 439.1314 21.354 411.9392 21.354" fill="#fff"/>
        <path d="M156.5991,101.5147c-.035-18.3718,13.8956-25.5104,23.408-25.5104,10.1649,0,23.4924,8.1644,23.4076,25.5104h-46.8156Z"/>
        <circle cx="368.1564" cy="109.354" r="29.5479"/>
      </g>
    </mask>
  </defs>
  <g id="a" data-name="Font">
    <polygon points="16.5448 21.354 120.2167 21.354 120.2167 37.474 46.4163 138.1664 120.7769 138.1664 120.7769 159.354 10 159.354 10 143.4633 84.1611 42.3635 16.7221 42.3635 16.5448 21.354" fill="url(#b)"/>
    <g mask="url(#c)">
      <path d="M156.599,114.7574h69.3841c3.5438-27.7909-8.8595-44.6706-24.0606-51.8515-15.2011-7.1809-43.2738-3.1757-55.7683,9.3258-20.8898,20.9015-21.2458,52.8294-1.3056,72.9278,23.501,23.6876,57.0739,12.3101,66.2132,4.4764l-8.9994-15.2477c-14.3621,10.4449-31.6611,6.2949-37.6296,.1399s-7.7303-15.9943-7.8337-19.7707Z" fill="url(#d)"/>
    </g>
    <path d="M243.2454,60.5082v98.8459l20.4811-.3229v-57.2984c.5852-16.5312,24.4311-25.6014,40.3771-21.9441l5.5592-19.4571c-30.1365-5.0228-47.4577,10.9446-47.4577,10.9446l-1.8877-11.0779-17.072,.3099Z" fill="url(#e)"/>
    <g mask="url(#f)">
      <circle cx="368.1564" cy="109.354" r="50" fill="url(#g)"/>
    </g>
    <polygon points="411.9392 21.354 472.1941 159.354 482.5828 159.354 542.8377 21.354 515.6455 21.354 477.3885 108.9731 439.1314 21.354 411.9392 21.354" fill="url(#h)"/>
  </g>
  <g id="i" data-name="Line">
    <g mask="url(#j)">
      <polyline points="13.2706 .2065 44.4762 69.0009 50.8592 34.6037 54.4053 3.0434 73.5543 27.8661 50.8592 34.6037 87.0294 41.3413 148.7316 21.354 88.4479 96.6604 170.0082 71.1285 174.2635 37.7952 301.2138 38.5044 170.0082 71.1285 234.5472 83.1853 279.5578 105.8803 374.9727 53.0434 465.7528 15.1002 521.7812 94.5328 418.1564 80.3484 353.0705 65.172 300.5046 134.2491 368.1564 109.354 183.4833 90.9335 178.3885 130.703 126.7458 75.3839 33.8379 78.93 74.9727 113.6817 31.0011 165.4548 226.5931 126.4477 276.4541 145.5966 411.9392 151.2704 477.3885 70.4193 473.5543 165.4548 521.7812 139.2136 488.4479 115.1002 473.5543 165.4548 433.8379 152.6888 475.53 116.4839 376.349 70.5999 407.5968 115.1002 379.226 149.9004 300.5046 134.2491 279.5578 105.8803 226.5931 126.4477 178.3885 130.703 125.3273 159.354 74.9727 113.6817 148.0223 54.8165 236.6748 47.0151 279.5578 105.8803 301.2138 38.5044 438.0933 59.354 436.7093 27.2394 460.0791 32.1214 438.0933 59.354 550.15 29.2846 498.256 61.1806 477.3885 70.4193 488.4479 115.1002 521.7812 94.5328 550.15 29.2846 460.0791 32.1214 376.349 70.5999 353.0705 65.172 234.5472 163.3271 138.7521 120.8564 170.0082 71.1285 43.3494 150.9157 47.3603 90.354 87.0294 41.3413 73.5543 27.8661 148.7316 21.354 291.4735 68.8083 304.9506 82.2853 276.4541 145.5966 234.5472 163.3271 174.2635 163.3271 178.3885 130.703 144.7657 164.3258 176.3158 147.0952 138.7521 120.8564 43.3494 150.9157 125.3273 159.354 31.0011 165.4548 4.7599 137.086 33.8379 78.93 148.7316 21.354" fill="none" stroke="#5b00ed" stroke-linejoin="bevel"/>
    </g>
  </g>
  <g id="k" data-name="Outline2">
    <path d="M120.2167,21.354v16.12L46.4163,138.1664H120.7769v21.1877H10v-15.8907L84.1611,42.3635H16.7221l-.1774-21.0094H120.2167m0-10H16.5447c-2.6668,0-5.2231,1.0652-7.1008,2.9588-1.8778,1.8937-2.9213,4.4589-2.8988,7.1256l.1774,21.0094c.0463,5.4897,4.5097,9.9156,9.9996,9.9156h47.7016L1.9367,137.5485c-1.2583,1.7154-1.9367,3.7873-1.9367,5.9147v15.8907c0,5.5228,4.4772,10,10,10H120.7769c5.5228,0,10-4.4772,10-10v-21.1877c0-5.5228-4.4772-10-10-10h-54.633l62.1383-84.7809c1.2568-1.7148,1.9344-3.7855,1.9344-5.9115V21.354c0-5.5228-4.4772-10-10-10h0Z"/>
    <path d="M183.4174,59.354c6.8984,0,13.4217,1.1505,18.5051,3.5518,15.2011,7.1809,27.6044,24.0606,24.0606,51.8515h-69.3841c.1035,3.7764,1.8653,13.6157,7.8338,19.7707,3.3296,3.4337,10.1851,6.2433,18.09,6.2433,6.2651,0,13.1896-1.765,19.5396-6.3831l8.9994,15.2477c-5.0405,4.3204-17.5107,9.7181-31.6266,9.7181-11.4789,0-24.0467-3.571-34.5866-14.1945-19.9402-20.0984-19.5842-52.0263,1.3056-72.9278,8.3162-8.3208,23.5332-12.8776,37.2632-12.8776m0-10c-13.7955,0-32.6872,4.1529-44.3363,15.8086-24.6752,24.689-25.26,62.9215-1.3315,87.04,11.1322,11.2206,25.5469,17.1515,41.6856,17.1515,16.4814,0,31.3211-6.2855,38.1345-12.1255,3.682-3.156,4.5689-8.4991,2.104-12.6754l-8.9994-15.2477c-1.3165-2.2306-3.442-3.8555-5.9197-4.548h21.2285c5.0338,0,9.283-3.7417,9.9197-8.7351,3.6242-28.4217-7.482-51.6584-29.709-62.1583-6.2457-2.9504-14.1216-4.51-22.7764-4.51h0Zm-13.8446,75.4033h29.7973c-1.1346,.3172-2.2162,.8356-3.1895,1.5434-5.0807,3.695-10.2316,4.4706-13.658,4.4706-5.896,0-9.897-2.1591-10.911-3.2047-.7844-.8089-1.4604-1.7728-2.039-2.8093h0Z"/>
    <path d="M298.097,59.354c3.61,.0002,7.4713,.2951,11.5658,.9776l-5.5591,19.4571c-2.3641-.5422-4.9001-.8046-7.5099-.8046-14.9937,0-32.3687,8.6683-32.8672,22.7487v57.2984l-20.4811,.3229V60.5082l17.072-.3099,1.8877,11.0779s12.9309-11.9233,35.8919-11.9222m.0005-10s.0002,0-.0001,0c-12.0685-.0006-21.8445,2.8837-28.9819,6.088-1.7084-3.1594-5.0464-5.2436-8.7957-5.2438-.0613,0-.1224,.0006-.1839,.0017l-17.072,.3099c-5.4512,.0989-9.8185,4.5462-9.8185,9.9983v98.8459c0,2.6795,1.0753,5.2469,2.9849,7.1266,1.8721,1.8428,4.3923,2.8734,7.0149,2.8734,.0526,0,.1052-.0004,.1578-.0013l20.4811-.3229c5.4607-.0861,9.8424-4.5374,9.8424-9.9988v-57.0822c.4074-7.3124,12.5685-12.9648,22.8672-12.9648,1.9044,0,3.6789,.1855,5.2744,.5515,.7507,.1722,1.5023,.2549,2.2426,.2549,4.3706,0,8.3589-2.8822,9.6082-7.2547l5.5591-19.4571c.7826-2.7392,.3599-5.6821-1.1622-8.0901-1.5221-2.408-3.999-4.0526-6.809-4.521-4.4321-.7387-8.8769-1.1134-13.2093-1.1136h0Z"/>
    <path d="M368.1564,59.354c27.6142,0,50,22.3858,50,50s-22.3858,50-50,50-50-22.3858-50-50,22.3857-50,50-50m0-10c-33.0841,0-60,26.9159-60,60s26.9159,60,60,60,60-26.9159,60-60-26.9159-60-60-60h0Z"/>
    <path d="M542.8377,21.354l-60.2548,138h-10.3887L411.9392,21.354h27.1922l38.257,87.619,38.2571-87.619h27.1921m0-10h-27.1921c-3.9756,0-7.5737,2.355-9.1645,5.9985l-29.0926,66.6298-29.0925-66.6298c-1.5908-3.6435-5.1889-5.9985-9.1645-5.9985h-27.1922c-3.3734,0-6.5195,1.7009-8.367,4.5235-1.8475,2.8226-2.1473,6.3864-.7975,9.478l60.2549,138c1.5908,3.6435,5.1888,5.9985,9.1645,5.9985h10.3887c3.9756,0,7.5737-2.355,9.1645-5.9985l60.2548-138c1.3499-3.0916,1.05-6.6555-.7975-9.478-1.8475-2.8226-4.9935-4.5235-8.367-4.5235h0Z"/>
    <path d="M180.007,86.0043c2.5168,0,6.2654,1.0646,9.2387,4.0525,.4561,.4584,.8754,.9447,1.2572,1.458h-21.1256c.3906-.5425,.8221-1.0504,1.2943-1.5235,2.9371-2.9427,6.8646-3.9869,9.3355-3.9869m0-10c-9.5123,0-23.443,7.1386-23.4079,25.5104h46.8155c.0848-17.346-13.2426-25.5104-23.4076-25.5104h0Z"/>
    <path d="M368.1564,89.8061c10.7787,0,19.5479,8.7692,19.5479,19.5479s-8.7692,19.5479-19.5479,19.5479-19.5479-8.7692-19.5479-19.5479,8.7692-19.5479,19.5479-19.5479m0-10c-16.3189,0-29.5479,13.2291-29.5479,29.5479s13.2291,29.5479,29.5479,29.5479,29.5479-13.2291,29.5479-29.5479-13.2291-29.5479-29.5479-29.5479h0Z"/>
  </g>
  <g id="l" data-name="Outline">
    <path d="M120.777,161.8544H10.0002c-1.3809,0-2.5-1.1191-2.5-2.5v-15.8906c0-.5322,.1694-1.0498,.4844-1.4785L79.2268,44.8637H16.7224c-1.3726,0-2.4883-1.1064-2.5-2.479l-.1777-21.0098c-.0054-.6665,.2554-1.3076,.7246-1.7812,.4697-.4736,1.1089-.7397,1.7754-.7397H120.2165c1.3809,0,2.5,1.1191,2.5,2.5v16.1201c0,.5317-.1694,1.0493-.4834,1.478L51.3483,135.6659H120.777c1.3809,0,2.5,1.1191,2.5,2.5v21.1885c0,1.3809-1.1191,2.5-2.5,2.5Zm-108.2769-5H118.277v-16.1885H46.4162c-.9419,0-1.8042-.5293-2.23-1.3701-.4258-.8398-.3433-1.8477,.2134-2.6074L117.7165,36.6562v-12.8022H19.0661l.1353,16.0098H84.1613c.9424,0,1.8042,.5298,2.23,1.3701s.3433,1.8491-.2144,2.6084L12.5002,144.2821v12.5723Z" fill="#fff"/>
    <path d="M156.599,114.7574h69.3841c3.5438-27.7909-8.8595-44.6706-24.0606-51.8515-15.2011-7.1809-43.2738-3.1757-55.7683,9.3258-20.8898,20.9015-21.2458,52.8294-1.3056,72.9278,23.501,23.6876,57.0739,12.3101,66.2132,4.4764l-8.9994-15.2477c-14.3621,10.4449-31.6611,6.2949-37.6296,.1399s-7.7303-15.9943-7.8337-19.7707Z" fill="none" stroke="#fff" stroke-linejoin="round" stroke-width="5"/>
    <path d="M243.2454,60.5082v98.8459l20.4811-.3229v-57.2984c.5852-16.5312,24.4311-25.6014,40.3771-21.9441l5.5592-19.4571c-30.1365-5.0228-47.4577,10.9446-47.4577,10.9446l-1.8877-11.0779-17.072,.3099Z" fill="none" stroke="#fff" stroke-linejoin="round" stroke-width="5"/>
    <circle cx="368.1564" cy="109.354" r="50" fill="none" stroke="#fff" stroke-linejoin="round" stroke-width="5"/>
    <polygon points="411.9392 21.354 472.1941 159.354 482.5828 159.354 542.8377 21.354 515.6455 21.354 477.3885 108.9731 439.1314 21.354 411.9392 21.354" fill="none" stroke="#fff" stroke-linejoin="round" stroke-width="5"/>
    <path d="M156.5991,101.5147c-.035-18.3718,13.8956-25.5104,23.408-25.5104,10.1649,0,23.4924,8.1644,23.4076,25.5104h-46.8156Z" fill="none" stroke="#fff" stroke-linejoin="round" stroke-width="5"/>
    <circle cx="368.1564" cy="109.354" r="29.5479" fill="none" stroke="#fff" stroke-linejoin="round" stroke-width="5"/>
  </g>
</svg>